# xmcd
#
# Track frame offsets: 
#        150
#        19385
#        31172
#        43562
#        58112
#        83687
#        99062
#        125787
#        149087
#        165662
#
# Disc length: 2353 seconds
#
# Revision: 6
# Processed by: cddbd v1.5.2PL0 Copyright (c) Steve Scherf et al.
# Submitted via: ExactAudioCopy v1.0b1
#
DISCID=82092f0a
DTITLE=אילן וירצברג ושמעון גלבץ - בציר טוב
DYEAR=1982
DGENRE=Israeli Alt. Rock
TTITLE0=פתיחה - המלאכים סחוטים ובתולה קדושה
TTITLE1=כשבאתי לקחת אותה מהעננים
TTITLE2=יונתן
TTITLE3=אוי ציפורה
TTITLE4=לא יכולתי לעשות כלום
TTITLE5=כל נשיפה
TTITLE6=אני הולך במישור
TTITLE7=שיר קדמשנתי - סקס אחר
TTITLE8=מפלצת האיילה
TTITLE9=קורנליה
EXTD=
EXTT0=
EXTT1=
EXTT2=
EXTT3=
EXTT4=
EXTT5=
EXTT6=
EXTT7=
EXTT8=
EXTT9=
PLAYORDER=
